<!-- Generated by IcoMoon.io -->
<svg version="1.1" xmlns="http://www.w3.org/2000/svg" width="32" height="32" viewBox="0 0 32 32">
<title>explore</title>
<path d="M16 2.667c-7.36 0-13.333 5.973-13.333 13.333s5.973 13.333 13.333 13.333 13.333-5.973 13.333-13.333-5.973-13.333-13.333-13.333zM16 26.667c-5.88 0-10.667-4.787-10.667-10.667s4.787-10.667 10.667-10.667 10.667 4.787 10.667 10.667-4.787 10.667-10.667 10.667zM8.667 23.333l10.013-4.653 4.653-10.013-10.013 4.653-4.653 10.013zM16 14.533c0.813 0 1.467 0.653 1.467 1.467s-0.653 1.467-1.467 1.467-1.467-0.653-1.467-1.467 0.653-1.467 1.467-1.467z"></path>
</svg>
