<!-- Generated by IcoMoon.io -->
<svg version="1.1" xmlns="http://www.w3.org/2000/svg" width="32" height="32" viewBox="0 0 32 32">
<title>format_list_bulleted</title>
<path d="M9.313 6.688h18.688v2.625h-18.688v-2.625zM9.313 17.313v-2.625h18.688v2.625h-18.688zM9.313 25.313v-2.625h18.688v2.625h-18.688zM5.313 22q0.813 0 1.406 0.594t0.594 1.406-0.594 1.406-1.406 0.594-1.406-0.594-0.594-1.406 0.594-1.406 1.406-0.594zM5.313 6q0.813 0 1.406 0.563t0.594 1.438-0.594 1.438-1.406 0.563-1.406-0.563-0.594-1.438 0.594-1.438 1.406-0.563zM5.313 14q0.813 0 1.406 0.563t0.594 1.438-0.594 1.438-1.406 0.563-1.406-0.563-0.594-1.438 0.594-1.438 1.406-0.563z"></path>
</svg>
