<!-- Generated by IcoMoon.io -->
<svg version="1.1" xmlns="http://www.w3.org/2000/svg" width="32" height="32" viewBox="0 0 32 32">
<title>Icon-More</title>
<path d="M7.113 14.22c-0.002 0-0.004 0-0.007 0-0.983 0-1.78 0.797-1.78 1.78s0.797 1.78 1.78 1.78c0.983 0 1.78-0.797 1.78-1.78v0c0 0 0 0 0 0 0-0.981-0.793-1.776-1.773-1.78h-0z"></path>
<path d="M16 14.22c-0.983 0-1.78 0.797-1.78 1.78s0.797 1.78 1.78 1.78c0.983 0 1.78-0.797 1.78-1.78v0c-0.004-0.982-0.798-1.776-1.78-1.78h-0z"></path>
<path d="M24.887 14.22c-0.983 0-1.78 0.797-1.78 1.78s0.797 1.78 1.78 1.78c0.983 0 1.78-0.797 1.78-1.78v0c0-0.983-0.797-1.78-1.78-1.78v0z"></path>
</svg>
