<!-- Generated by IcoMoon.io -->
<svg version="1.1" xmlns="http://www.w3.org/2000/svg" width="32" height="32" viewBox="0 0 32 32">
<title>Icon-Go-Backward</title>
<path d="M12.867 15.733h0.4v9.6h-1.067v-8.133c-0.133 0.133-0.267 0.267-0.4 0.333-0.2 0.133-0.4 0.2-0.6 0.333-0.2 0.067-0.4 0.2-0.6 0.267s-0.333 0.133-0.533 0.2v-1.067c0.267-0.067 0.467-0.133 0.733-0.267s0.533-0.2 0.733-0.333c0.267-0.133 0.467-0.267 0.733-0.4s0.4-0.4 0.6-0.533zM22.4 19.533c0 0.333 0 0.733 0 1.067s0 0.667-0.067 1.067c-0.067 0.4-0.067 0.733-0.2 1.133-0.067 0.333-0.2 0.733-0.333 1.067s-0.333 0.6-0.533 0.867c-0.267 0.267-0.533 0.467-0.8 0.6-0.333 0.133-0.733 0.2-1.133 0.2s-0.733-0.067-1.067-0.2c-0.267-0.133-0.533-0.333-0.8-0.6-0.2-0.267-0.4-0.533-0.533-0.8-0.133-0.333-0.267-0.667-0.333-1s-0.133-0.667-0.2-1.067c0-0.333-0.067-0.667-0.067-1s0-0.733 0.067-1.133c0-0.4 0.067-0.733 0.2-1.133 0.067-0.333 0.2-0.733 0.333-1.067s0.333-0.6 0.6-0.867c0.267-0.267 0.533-0.467 0.867-0.6 0.4-0.133 0.8-0.267 1.2-0.2 0.4 0 0.8 0.067 1.133 0.2s0.6 0.333 0.8 0.6c0.2 0.267 0.4 0.533 0.533 0.867s0.267 0.667 0.333 1c0 0.267 0 0.6 0 1zM21.4 20.667c0-0.2 0-0.467 0-0.733s-0.067-0.6-0.067-0.867c-0.067-0.267-0.067-0.6-0.2-0.867-0.067-0.267-0.2-0.533-0.333-0.733s-0.333-0.4-0.533-0.533c-0.267-0.2-0.533-0.267-0.8-0.267s-0.533 0.067-0.8 0.2c-0.2 0.133-0.4 0.333-0.533 0.533-0.133 0.267-0.267 0.533-0.333 0.8s-0.133 0.6-0.2 0.867c-0.067 0.333-0.067 0.6-0.067 0.933 0 0.267 0 0.533 0 0.733s0 0.467 0 0.733 0.067 0.533 0.067 0.867c0.067 0.267 0.133 0.533 0.2 0.8s0.2 0.467 0.333 0.733c0.133 0.2 0.333 0.4 0.533 0.533 0.267 0.133 0.533 0.2 0.8 0.2s0.533-0.067 0.8-0.2c0.2-0.133 0.4-0.333 0.533-0.533s0.267-0.467 0.333-0.733c0.067-0.267 0.133-0.533 0.2-0.867 0-0.267 0-0.533 0-0.867 0-0.267 0.067-0.533 0.067-0.733zM25.133 11.2c-1.333-1.933-3.333-3.333-5.533-4.067-2.067-0.667-4.2-0.733-6.333-0.2-0.933 0.267-1.8 0.6-2.6 1.067s-1.6 1-2.267 1.667c-0.667 0.667-1.267 1.4-1.733 2.2v-2.533h-1.333v5.333h5.4v-1.333h-3.333c0.4-0.8 0.933-1.533 1.533-2.2s1.333-1.2 2.067-1.667c0.733-0.467 1.6-0.8 2.4-1.067 0.867-0.267 1.733-0.4 2.667-0.4 1.067 0 2.133 0.133 3.067 0.533 1 0.333 1.867 0.8 2.733 1.4 0.8 0.6 1.533 1.333 2.133 2.133 0.6 0.867 1.067 1.8 1.4 2.8l1.267-0.4c-0.333-1.267-0.867-2.333-1.533-3.267v0z"></path>
</svg>
