<!-- Generated by IcoMoon.io -->
<svg version="1.1" xmlns="http://www.w3.org/2000/svg" width="32" height="32" viewBox="0 0 32 32">
<title>Icon-Screen-Mirror</title>
<path d="M22.667 16.667h1.333v6.933c0 0.2-0.067 0.4-0.133 0.533s-0.133 0.333-0.267 0.467c-0.133 0.133-0.267 0.2-0.4 0.267s-0.333 0.133-0.533 0.133h-16c-0.2 0-0.333-0.067-0.533-0.133-0.133-0.067-0.267-0.2-0.4-0.267-0.133-0.133-0.2-0.267-0.267-0.467-0.067-0.133-0.133-0.333-0.133-0.533v-12.467c0-0.2 0-0.333 0.133-0.533 0.067-0.133 0.133-0.333 0.267-0.467 0.267-0.267 0.6-0.4 0.933-0.4h10.667v1.4h-10.667v12.467h16v-6.933zM18.667 7c0.733 0 1.467 0.067 2.133 0.267 1.333 0.4 2.533 1.133 3.533 2.133 0.467 0.533 0.933 1.067 1.267 1.667s0.6 1.333 0.8 2c0.2 0.733 0.267 1.467 0.267 2.2h-1.333c0-1.2-0.333-2.4-0.933-3.467-0.267-0.533-0.667-1-1.067-1.4s-0.867-0.8-1.333-1.067c-0.467-0.267-1.067-0.533-1.6-0.667-0.6-0.2-1.2-0.267-1.8-0.333v-1.333zM18.667 9.8c0.733 0 1.4 0.133 2.067 0.4s1.2 0.667 1.667 1.2c0.467 0.533 0.867 1.133 1.133 1.733 0.267 0.667 0.4 1.4 0.4 2.2h-1.333c0-0.533-0.133-1.067-0.333-1.6-0.2-0.467-0.467-0.933-0.867-1.333-0.333-0.4-0.8-0.667-1.267-0.867s-1-0.333-1.533-0.333v-1.4zM20 15.333c0-0.333-0.133-0.733-0.4-1-0.133-0.133-0.267-0.2-0.4-0.333-0.133-0.067-0.333-0.133-0.533-0.133v-1.4c0.333 0 0.733 0.067 1 0.2 0.333 0.133 0.6 0.333 0.867 0.6s0.467 0.533 0.6 0.867c0.133 0.333 0.2 0.733 0.2 1.133h-1.333z"></path>
</svg>
