<!-- Generated by IcoMoon.io -->
<svg version="1.1" xmlns="http://www.w3.org/2000/svg" width="32" height="32" viewBox="0 0 32 32">
<title>Icon-Vizualisation</title>
<path d="M25.867 16.133h-1.867l-0.667-2.733c0-0.4-0.267-0.667-0.667-0.667s-0.667 0.267-0.667 0.667l-0.867 4.4-1.133-7.467c0-0.4-0.267-0.667-0.667-0.667s-0.667 0.267-0.667 0.667l-0.933 8.333-1-12.667c0-0.4-0.333-0.667-0.667-0.667s-0.667 0.333-0.667 0.667l-1 12.667-0.933-8.4c0-0.4-0.267-0.667-0.667-0.667s-0.667 0.267-0.667 0.667l-1.067 7.533-0.867-4.4c0-0.4-0.267-0.667-0.667-0.667s-0.667 0.267-0.667 0.667l-0.667 2.733h-2c-0.467 0-0.8 0.333-0.8 0.8s0.333 0.8 0.8 0.8h2.467c0.333 0 0.6-0.2 0.667-0.467l0.133-0.467 1.067 5.2c0 0.4 0.267 0.667 0.667 0.667s0.667-0.267 0.667-0.667l0.867-6.133 1 10.133c0 0.4 0.267 0.667 0.667 0.667s0.667-0.267 0.667-0.667l0.933-11.667 1 11.667c0 0.4 0.267 0.667 0.667 0.667s0.667-0.267 0.667-0.667l1.067-10.133 0.867 6.133c0 0.4 0.267 0.667 0.667 0.667s0.667-0.267 0.667-0.667l1.067-5.267 0.133 0.4c0.067 0.333 0.4 0.6 0.733 0.6h2.333c0.467 0 0.8-0.333 0.8-0.8 0.067-0.467-0.333-0.8-0.8-0.8v0z"></path>
</svg>
