<!-- Generated by IcoMoon.io -->
<svg version="1.1" xmlns="http://www.w3.org/2000/svg" width="32" height="32" viewBox="0 0 32 32">
<title>Icon-Search</title>
<path d="M26.153 10.72c-0.186-0.668-0.432-1.25-0.74-1.792l0.020 0.039c-0.328-0.562-0.701-1.048-1.128-1.481l0.001 0.001c-0.422-0.438-0.897-0.819-1.416-1.136l-0.031-0.018c-1.023-0.628-2.263-1-3.589-1-0.006 0-0.012 0-0.019 0h0.001c-0.005 0-0.012-0-0.018-0-1.326 0-2.565 0.372-3.619 1.017l0.030-0.017c-0.553 0.334-1.030 0.716-1.451 1.151l-0.002 0.002c-0.421 0.433-0.792 0.918-1.101 1.444l-0.019 0.036c-0.612 1.057-0.973 2.325-0.973 3.677 0 0.008 0 0.016 0 0.024v-0.001c-0 0.011-0 0.024-0 0.036 0 0.881 0.156 1.726 0.443 2.508l-0.016-0.051c0.305 0.833 0.721 1.553 1.237 2.187l-0.011-0.014-7.967 8.2c-0.118 0.12-0.191 0.285-0.191 0.467s0.073 0.346 0.191 0.467l-0-0c0.114 0.124 0.276 0.201 0.457 0.201s0.343-0.077 0.456-0.2l0-0 7.967-8.167c0.607 0.525 1.316 0.952 2.092 1.244l0.048 0.016c0.715 0.279 1.543 0.44 2.409 0.44 0.009 0 0.017-0 0.026-0h-0.001c0.005 0 0.012 0 0.018 0 1.326 0 2.565-0.372 3.619-1.017l-0.030 0.017c0.55-0.334 1.025-0.716 1.445-1.151l0.002-0.002c0.426-0.432 0.799-0.918 1.108-1.445l0.019-0.035c0.288-0.503 0.534-1.085 0.707-1.698l0.013-0.055c0.161-0.584 0.253-1.255 0.253-1.947s-0.092-1.363-0.266-2l0.012 0.053zM24.667 15c-0.314 0.739-0.739 1.371-1.261 1.908l0.001-0.001c-0.52 0.53-1.137 0.963-1.822 1.271l-0.038 0.015c-0.671 0.299-1.453 0.473-2.277 0.473s-1.606-0.174-2.313-0.488l0.036 0.014c-1.415-0.633-2.515-1.759-3.099-3.154l-0.015-0.039c-0.291-0.69-0.46-1.492-0.46-2.333s0.169-1.643 0.475-2.374l-0.015 0.041c0.598-1.435 1.698-2.561 3.076-3.178l0.038-0.015c0.671-0.299 1.453-0.473 2.277-0.473s1.606 0.174 2.313 0.488l-0.036-0.014c0.723 0.324 1.34 0.757 1.859 1.286l0.001 0.001c0.521 0.535 0.946 1.168 1.245 1.867l0.015 0.040c0.291 0.69 0.46 1.492 0.46 2.333s-0.169 1.643-0.475 2.374l0.015-0.041z"></path>
</svg>
