<!-- Generated by IcoMoon.io -->
<svg version="1.1" xmlns="http://www.w3.org/2000/svg" width="32" height="32" viewBox="0 0 32 32">
<title>Icon-Video</title>
<path d="M8 15.353h1.333v1.293h-1.333v-1.293z"></path>
<path d="M8 12.767h1.333v1.293h-1.333v-1.293z"></path>
<path d="M8 17.94h1.333v1.293h-1.333v-1.293z"></path>
<path d="M22.667 15.353h1.333v1.293h-1.333v-1.293z"></path>
<path d="M5.333 8.887v14.227h21.333v-14.227zM25.333 21.82h-1.333v-1.293h-1.333v1.293h-13.333v-1.293h-1.333v1.293h-1.333v-11.64h1.333v1.293h1.333v-1.293h13.333v1.293h1.333v-1.293h1.333z"></path>
<path d="M22.667 17.94h1.333v1.293h-1.333v-1.293z"></path>
<path d="M22.667 12.767h1.333v1.293h-1.333v-1.293z"></path>
</svg>
