<!-- Generated by IcoMoon.io -->
<svg version="1.1" xmlns="http://www.w3.org/2000/svg" width="32" height="32" viewBox="0 0 32 32">
<title>Icon-LAN</title>
<path d="M6.667 10v9.333h8v1.333h-9.333v-12h20v1.333h-18.667zM12 23.333h2.667v-1.333h-2.667v1.333zM16 23.333h10.667v-5.333h-10.667v5.333zM25.6 14.4c-0.533-0.533-1.2-1-1.933-1.333-0.733-0.267-1.533-0.4-2.333-0.4s-1.6 0.133-2.333 0.467c-0.733 0.333-1.4 0.733-1.933 1.333l-0.933-0.933c0.667-0.667 1.467-1.2 2.4-1.6 1.8-0.733 3.8-0.733 5.6 0 0.867 0.333 1.733 0.933 2.4 1.6l-0.933 0.867zM17.333 22h8v-2.667h-8v2.667zM18 15.333c0.467-0.4 0.933-0.8 1.533-1 1.133-0.467 2.4-0.467 3.6 0 0.6 0.2 1.133 0.6 1.533 1l-0.933 0.933c-0.333-0.333-0.667-0.533-1.067-0.733-0.8-0.333-1.733-0.333-2.533 0-0.4 0.2-0.8 0.4-1.067 0.733l-1.067-0.933z"></path>
</svg>
