<!-- Generated by IcoMoon.io -->
<svg version="1.1" xmlns="http://www.w3.org/2000/svg" width="32" height="32" viewBox="0 0 32 32">
<title>Icon-Vinyl</title>
<path d="M13.333 15.067l-1.893-0.667c0.432-1.227 1.309-2.205 2.432-2.761l0.028-0.013 0.887 1.8c-0.681 0.335-1.2 0.914-1.447 1.62l-0.006 0.020zM20.6 17.593l-1.933-0.66c-0.247 0.723-0.762 1.298-1.423 1.619l-0.017 0.007 0.86 1.813c1.171-0.556 2.063-1.541 2.483-2.747l0.010-0.033zM11.46 20.54c-1.149-1.158-1.859-2.752-1.859-4.513 0-3.538 2.868-6.407 6.407-6.407s6.407 2.868 6.407 6.407c0 0.327-0.024 0.648-0.072 0.962l0.004-0.035c0 0.207-0.073 0.413-0.12 0.62s-0.113 0.4-0.18 0.6c0 0.093-0.073 0.193-0.113 0.287-0.096 0.232-0.185 0.419-0.283 0.6l0.016-0.033c-0.111 0.213-0.217 0.389-0.332 0.559l0.012-0.019c-0.185 0.277-0.378 0.519-0.589 0.743l0.003-0.003-0.22 0.233c-1.164 1.157-2.768 1.872-4.54 1.872s-3.376-0.715-4.54-1.873l0 0zM10.187 16c0.002 3.213 2.607 5.816 5.82 5.816 1.606 0 3.060-0.651 4.113-1.703l-0 0c1.046-1.038 1.694-2.476 1.694-4.066 0-0.017-0-0.034-0-0.050l0 0.003c0-3.211-2.603-5.813-5.813-5.813s-5.813 2.603-5.813 5.813v0zM16 17.233c0.681 0 1.233-0.552 1.233-1.233s-0.552-1.233-1.233-1.233c-0.681 0-1.233 0.552-1.233 1.233v0c0 0.002-0 0.004-0 0.007 0 0.677 0.549 1.227 1.227 1.227 0.002 0 0.005 0 0.007-0h-0zM26.667 7.113v17.773c0 0.002 0 0.004 0 0.007 0 0.979-0.794 1.773-1.773 1.773-0.002 0-0.005 0-0.007 0h-17.773c-0.002 0-0.004 0-0.007 0-0.979 0-1.773-0.794-1.773-1.773 0-0.002 0-0.005 0-0.007v0-17.773c0-0.002 0-0.004 0-0.007 0-0.979 0.794-1.773 1.773-1.773 0.002 0 0.005 0 0.007 0h17.773c0.002 0 0.004 0 0.007 0 0.979 0 1.773 0.794 1.773 1.773 0 0.002 0 0.005 0 0.007v-0zM24.887 7.113h-17.773v17.773h17.773z"></path>
</svg>
