<!-- Generated by IcoMoon.io -->
<svg version="1.1" xmlns="http://www.w3.org/2000/svg" width="32" height="32" viewBox="0 0 32 32">
<title>Icon-Sync</title>
<path d="M25.387 18.507l1.28 0.393c-0.37 1.203-0.902 2.251-1.581 3.184l0.021-0.031c-1.364 1.867-3.253 3.277-5.448 4.023l-0.079 0.023c-1.031 0.359-2.22 0.567-3.457 0.567-0.017 0-0.035-0-0.052-0h0.003c-0.003 0-0.006 0-0.010 0-0.991 0-1.953-0.129-2.868-0.371l0.078 0.018c-0.977-0.252-1.833-0.601-2.627-1.048l0.054 0.028c-0.851-0.476-1.586-1.015-2.246-1.633l0.007 0.006c-0.679-0.634-1.272-1.348-1.767-2.129l-0.026-0.044v2.507h-1.333v-5.333h5.373v1.333h-3.333c0.43 0.839 0.943 1.56 1.544 2.198l-0.004-0.005c0.595 0.637 1.267 1.191 2.005 1.649l0.042 0.024c0.7 0.431 1.507 0.794 2.361 1.048l0.072 0.018c0.793 0.241 1.704 0.38 2.648 0.38 0.007 0 0.013 0 0.020-0h-0.001c0.040 0.001 0.088 0.001 0.136 0.001 3.198 0 6.032-1.557 7.785-3.954l0.019-0.027c0.587-0.809 1.060-1.748 1.369-2.759l0.018-0.067zM25.333 8v2.52c-0.52-0.825-1.11-1.539-1.781-2.168l-0.006-0.005c-0.647-0.616-1.373-1.159-2.158-1.611l-0.055-0.029c-0.74-0.417-1.596-0.766-2.497-1.003l-0.076-0.017c-0.837-0.224-1.799-0.353-2.79-0.353-0.015 0-0.030 0-0.045 0h0.002c-0.013-0-0.029-0-0.045-0-1.239 0-2.429 0.207-3.538 0.59l0.076-0.023c-2.274 0.77-4.162 2.18-5.505 4.015l-0.022 0.032c-0.658 0.903-1.19 1.95-1.54 3.078l-0.020 0.076 1.28 0.393c0.33-1.066 0.803-1.994 1.406-2.82l-0.019 0.027c1.788-2.456 4.653-4.033 7.886-4.033 0.014 0 0.028 0 0.043 0h-0.002c0.006 0 0.012-0 0.019-0 0.944 0 1.855 0.139 2.714 0.397l-0.067-0.017c0.926 0.273 1.734 0.636 2.478 1.092l-0.044-0.025c0.78 0.48 1.453 1.034 2.041 1.667l0.006 0.006c0.598 0.638 1.111 1.367 1.515 2.16l0.025 0.053h-3.28v1.333h5.333v-5.333z"></path>
</svg>
