<!-- Generated by IcoMoon.io -->
<svg version="1.1" xmlns="http://www.w3.org/2000/svg" width="32" height="32" viewBox="0 0 32 32">
<title>Icon-Volume</title>
<path d="M22.467 17.867c0.6-3.067-0.333-6.267-2.533-8.533l-0.933 0.933c0.733 0.733 1.333 1.6 1.733 2.6 0.8 2 0.8 4.2 0 6.133-0.4 1-1 1.867-1.733 2.6l0.933 1c0.4-0.467 0.8-0.933 1.133-1.4 0.333-0.533 0.6-1.067 0.867-1.6s0.467-1.133 0.533-1.733z"></path>
<path d="M26.4 13.4c-0.2-0.867-0.4-1.667-0.733-2.533-0.333-0.8-0.733-1.6-1.2-2.333s-1.067-1.4-1.667-2.067l-0.933 0.933c0.533 0.6 1 1.267 1.467 1.933 0.4 0.667 0.8 1.333 1.133 2.067 0.267 0.733 0.533 1.467 0.667 2.267 0.333 1.533 0.333 3.133 0 4.733-0.133 0.8-0.4 1.533-0.667 2.267-0.333 0.733-0.667 1.4-1.133 2.067s-0.933 1.267-1.467 1.867l0.933 0.933c0.6-0.6 1.2-1.333 1.667-2.067s0.867-1.533 1.2-2.333c0.333-0.8 0.6-1.667 0.733-2.533 0.333-1.733 0.333-3.467 0-5.2v0z"></path>
<path d="M8.4 12h-3.067v8h3.067l4 4h0.933v-16.067h-0.933l-4 4.067zM12 21.733l-3.067-3.067h-2.267v-5.333h2.267l3.067-3.067v11.467z"></path>
<path d="M17.133 12.2l-0.933 0.933c0.4 0.4 0.667 0.8 0.867 1.333 0.4 1 0.4 2.133 0 3.067-0.2 0.467-0.467 0.933-0.867 1.333l0.933 0.933c0.467-0.467 0.867-1.067 1.133-1.733 0.8-2 0.4-4.333-1.133-5.867z"></path>
</svg>
