<!-- Generated by IcoMoon.io -->
<svg version="1.1" xmlns="http://www.w3.org/2000/svg" width="32" height="32" viewBox="0 0 32 32">
<title>Icon-Go-Forward</title>
<path d="M12.867 15.733h0.4v9.6h-1.067v-8.133c-0.133 0.133-0.267 0.267-0.4 0.333-0.2 0.133-0.4 0.2-0.6 0.333-0.2 0.067-0.4 0.2-0.6 0.267s-0.333 0.133-0.533 0.2v-1.067c0.267-0.067 0.467-0.133 0.733-0.267s0.533-0.2 0.733-0.333c0.267-0.133 0.467-0.267 0.733-0.4s0.4-0.4 0.6-0.533zM22.4 19.533c0 0.333 0 0.733 0 1.067s0 0.667-0.067 1.067c-0.067 0.4-0.067 0.733-0.2 1.133-0.067 0.333-0.2 0.733-0.333 1.067s-0.333 0.6-0.533 0.867c-0.267 0.267-0.533 0.467-0.8 0.6-0.333 0.133-0.733 0.2-1.133 0.2s-0.733-0.067-1.067-0.2c-0.267-0.133-0.533-0.333-0.8-0.6-0.2-0.267-0.4-0.533-0.533-0.8-0.133-0.333-0.267-0.667-0.333-1s-0.133-0.667-0.2-1.067c0-0.333-0.067-0.667-0.067-1s0-0.733 0.067-1.133c0-0.4 0.067-0.733 0.2-1.133 0.067-0.333 0.2-0.733 0.333-1.067s0.333-0.6 0.6-0.867c0.267-0.267 0.533-0.467 0.867-0.6 0.4-0.133 0.8-0.267 1.2-0.2 0.4 0 0.8 0.067 1.133 0.2s0.6 0.333 0.8 0.6c0.2 0.267 0.4 0.533 0.533 0.867s0.267 0.667 0.333 1c0 0.267 0 0.6 0 1zM21.4 20.667c0-0.2 0-0.467 0-0.733s-0.067-0.6-0.067-0.867c-0.067-0.267-0.067-0.6-0.2-0.867-0.067-0.267-0.2-0.533-0.333-0.733s-0.333-0.4-0.533-0.533c-0.267-0.2-0.533-0.267-0.8-0.267s-0.533 0.067-0.8 0.2c-0.2 0.133-0.4 0.333-0.533 0.533-0.133 0.267-0.267 0.533-0.333 0.8s-0.133 0.6-0.2 0.867c-0.067 0.333-0.067 0.6-0.067 0.933 0 0.267 0 0.533 0 0.733s0 0.467 0 0.733 0.067 0.533 0.067 0.867c0.067 0.267 0.133 0.533 0.2 0.8s0.2 0.467 0.333 0.733c0.133 0.2 0.333 0.4 0.533 0.533 0.267 0.133 0.533 0.2 0.8 0.2s0.533-0.067 0.8-0.2c0.2-0.133 0.4-0.333 0.533-0.533s0.267-0.467 0.333-0.733c0.067-0.267 0.133-0.533 0.2-0.867 0-0.267 0-0.533 0-0.867 0-0.267 0.067-0.533 0.067-0.733zM25.333 9.2v2.533c-0.467-0.8-1.067-1.533-1.8-2.2-0.667-0.667-1.4-1.2-2.2-1.667s-1.667-0.8-2.6-1.067c-2.067-0.533-4.267-0.467-6.333 0.2-2.2 0.733-4.2 2.2-5.533 4.133-0.733 0.933-1.267 2.067-1.6 3.2l1.267 0.4c0.333-1 0.8-1.933 1.4-2.8s1.333-1.6 2.133-2.2c0.8-0.6 1.733-1.067 2.733-1.4s2.067-0.533 3.067-0.533c0.933 0 1.8 0.133 2.667 0.4s1.667 0.6 2.4 1.067c0.733 0.467 1.467 1.067 2.067 1.667 0.6 0.667 1.133 1.4 1.533 2.2h-3.333v1.333h5.467v-5.4h-1.333z"></path>
</svg>
