<!-- Generated by IcoMoon.io -->
<svg version="1.1" xmlns="http://www.w3.org/2000/svg" width="32" height="32" viewBox="0 0 32 32">
<title>Icon-AudioBook</title>
<path d="M19.667 16.267h-0.4v3.267h0.4c0.133 0 0.2-0.067 0.267-0.133s0.133-0.2 0.133-0.267v-2.467c0-0.133-0.067-0.2-0.133-0.267 0-0.067-0.133-0.133-0.267-0.133zM12.733 16.267h-0.4c-0.133 0-0.2 0.067-0.267 0.133s-0.133 0.2-0.133 0.267v2.467c0 0.133 0.067 0.2 0.133 0.267s0.2 0.133 0.267 0.133h0.4v-3.267zM16 9.733c0.467 0 0.867 0.067 1.333 0.2 0.4 0.133 0.8 0.267 1.2 0.533 0.333 0.2 0.667 0.467 1 0.733 0.267 0.267 0.533 0.667 0.733 1 0.467 0.733 0.667 1.6 0.667 2.467v4.533c0 0.133 0 0.333-0.067 0.467-0.133 0.333-0.333 0.533-0.667 0.667-0.133 0.067-0.333 0.133-0.467 0.067h-1.267v-4.933h1.267c0.133 0 0.267 0 0.4 0.067v-0.867c0-0.533-0.133-1.067-0.333-1.6-0.2-0.467-0.533-0.933-0.867-1.333-0.4-0.4-0.867-0.667-1.333-0.867-1-0.4-2.2-0.4-3.2 0-0.467 0.2-0.933 0.533-1.333 0.867-0.4 0.4-0.667 0.8-0.867 1.333s-0.267 1.067-0.267 1.6v0.867c0.133-0.067 0.267-0.067 0.4-0.067h1.267v4.933h-1.267c-0.133 0-0.333-0.067-0.467-0.067-0.133-0.067-0.267-0.133-0.4-0.267s-0.2-0.267-0.267-0.4c-0.067-0.133-0.067-0.333-0.067-0.467v-4.533c0-0.467 0.067-0.867 0.2-1.333 0.133-0.4 0.267-0.8 0.533-1.2 0.2-0.333 0.467-0.733 0.733-1s0.6-0.533 1-0.733c0.333-0.2 0.733-0.4 1.133-0.533s0.8-0.133 1.267-0.133zM24 6.667h-14.667c-0.2 0-0.333 0.067-0.467 0.133-0.333 0.133-0.6 0.4-0.733 0.733-0.067 0.133-0.133 0.267-0.133 0.467v14.8c0.2-0.067 0.467-0.133 0.667-0.133h15.333v-16zM24 24h-15.333c-0.4 0-0.667 0.267-0.667 0.667s0.267 0.667 0.667 0.667h15.333v-1.333zM25.333 5.333v21.333h-16.667c-0.267 0-0.533-0.067-0.8-0.133-0.467-0.2-0.867-0.6-1.067-1.067-0.067-0.267-0.133-0.533-0.133-0.8v-16.667c0-0.333 0.067-0.667 0.2-1 0.267-0.667 0.8-1.133 1.467-1.467 0.333-0.133 0.667-0.2 1-0.2h16z"></path>
</svg>
