<!-- Generated by IcoMoon.io -->
<svg version="1.1" xmlns="http://www.w3.org/2000/svg" width="32" height="32" viewBox="0 0 32 32">
<title>Icon-Phone</title>
<path d="M14.667 22.667h2.667v1.333h-2.667v-1.333z"></path>
<path d="M22.533 6.133c-0.133-0.333-0.4-0.6-0.733-0.733-0.133 0-0.267-0.067-0.467-0.067h-10.667c-0.2 0-0.333 0.067-0.533 0.133-0.333 0.133-0.6 0.4-0.733 0.733 0 0.133-0.067 0.267-0.067 0.467v18.667c0 0.2 0.067 0.333 0.133 0.533 0.133 0.333 0.4 0.6 0.733 0.733 0.133 0.067 0.333 0.133 0.533 0.133h10.667c0.2 0 0.333-0.067 0.533-0.133 0.333-0.133 0.6-0.4 0.733-0.733 0.067-0.133 0.133-0.333 0.133-0.533v-18.667c-0.133-0.2-0.2-0.333-0.267-0.533zM21.333 25.333h-10.667v-18.667h10.667v18.667z"></path>
</svg>
