<!-- Generated by IcoMoon.io -->
<svg version="1.1" xmlns="http://www.w3.org/2000/svg" width="32" height="32" viewBox="0 0 32 32">
<title>Icon-Time</title>
<path d="M26.267 13.2c-0.267-0.867-0.6-1.733-1.067-2.533-0.933-1.6-2.267-2.933-3.8-3.8-0.8-0.467-1.667-0.8-2.533-1.067-1.867-0.533-3.8-0.533-5.667 0-0.867 0.267-1.733 0.6-2.533 1.067-1.6 0.933-2.933 2.267-3.8 3.8-0.467 0.8-0.8 1.667-1.067 2.533-0.533 1.867-0.533 3.8 0 5.667 0.267 0.867 0.6 1.733 1.067 2.533 0.933 1.6 2.267 2.933 3.8 3.8 0.8 0.467 1.667 0.8 2.533 1.067 1.867 0.533 3.8 0.533 5.667 0 0.867-0.267 1.733-0.6 2.533-1.067 1.6-0.933 2.933-2.267 3.8-3.8 0.467-0.8 0.8-1.667 1.067-2.533 0.533-1.867 0.533-3.867 0-5.667zM24.933 18.533v0c-0.133 0.8-0.467 1.533-0.867 2.2-0.8 1.4-1.933 2.533-3.333 3.333-0.667 0.4-1.467 0.733-2.2 0.933-1.6 0.467-3.333 0.467-4.933 0-0.8-0.2-1.533-0.533-2.2-0.933-1.4-0.8-2.533-1.933-3.333-3.333-0.4-0.667-0.733-1.467-0.933-2.2-0.467-1.6-0.467-3.333 0-4.933 0.2-0.8 0.467-1.533 0.867-2.2 0.8-1.4 1.933-2.533 3.333-3.333 0.667-0.4 1.467-0.733 2.2-0.933 1.6-0.467 3.333-0.467 4.933 0 0.8 0.2 1.533 0.533 2.2 0.933 1.4 0.8 2.533 1.933 3.333 3.333 0.4 0.667 0.733 1.467 0.933 2.2 0.467 1.6 0.467 3.267 0 4.933zM16 16h4v1.333h-5.333v-8h1.333v6.667z"></path>
</svg>
