<!-- Generated by IcoMoon.io -->
<svg version="1.1" xmlns="http://www.w3.org/2000/svg" width="32" height="32" viewBox="0 0 32 32">
<title>Icon-Loop</title>
<path d="M5.4 16.667c0-4.067 3.267-7.4 7.333-7.467h11.4l-2.867-2.933 0.933-0.933 4.467 4.533-4.467 4.533-0.933-0.933 2.867-2.933h-11.4c-3.333 0-6.067 2.8-6.067 6.133 0 0 0 0 0 0h-1.267zM25.267 15.4c0 3.333-2.667 6.067-6.067 6.133h-11.333l2.867-2.933-0.933-0.933-4.467 4.467 4.467 4.533 0.933-0.933-2.867-2.933h11.4c4.067-0.067 7.333-3.4 7.333-7.467l-1.333 0.067z"></path>
</svg>
