<!-- Generated by IcoMoon.io -->
<svg version="1.1" xmlns="http://www.w3.org/2000/svg" width="32" height="32" viewBox="0 0 32 32">
<title>Icon-Radio</title>
<path d="M11.467 10l1 1c-0.467 0.467-0.8 1-1.067 1.6-0.533 1.2-0.533 2.6 0 3.8 0.267 0.6 0.6 1.133 1.067 1.6l-1 1c-0.6-0.6-1.067-1.267-1.4-2.067-0.667-1.533-0.667-3.267 0-4.867 0.333-0.8 0.8-1.467 1.4-2.067zM20.533 10c2.467 2.4 2.533 6.333 0.133 8.867-0.067 0.067-0.067 0.067-0.133 0.133l-1-1c0.467-0.467 0.8-1 1.067-1.6 0.467-1.2 0.467-2.6 0-3.8-0.267-0.6-0.6-1.133-1.067-1.6l1-1zM23.533 7c1 1 1.8 2.133 2.333 3.4 1.067 2.6 1.067 5.467 0 8.067-0.533 1.267-1.333 2.467-2.333 3.4l-1-1c0.867-0.867 1.533-1.867 2-2.933 0.933-2.267 0.933-4.733 0-7-0.467-1.133-1.133-2.133-2-2.933l1-1zM8.467 7l1 1c-0.867 0.867-1.533 1.867-2 2.933-0.933 2.267-0.933 4.733 0 7 0.467 1.133 1.133 2.133 2 2.933l-1 1c-1-1-1.8-2.133-2.333-3.4-1.067-2.6-1.067-5.467 0-8.067 0.533-1.267 1.333-2.4 2.333-3.4v0zM16.733 12.333v12.667h-1.4v-12.667h1.4z"></path>
</svg>
