<!-- Generated by IcoMoon.io -->
<svg version="1.1" xmlns="http://www.w3.org/2000/svg" width="32" height="32" viewBox="0 0 32 32">
<title>Icon-Loop-One</title>
<path d="M26.333 16.267c-0.133 0.133-0.333 0.267-0.533 0.4s-0.467 0.267-0.667 0.4c-0.2 0.133-0.467 0.2-0.667 0.333-0.2 0.067-0.467 0.2-0.667 0.267v0.933c0.2-0.067 0.4-0.133 0.533-0.2 0.2-0.067 0.4-0.133 0.533-0.267 0.133-0.067 0.333-0.2 0.467-0.267s0.2-0.133 0.333-0.267v7.067h1v-8.4h-0.333z"></path>
<path d="M16.467 20.2h-9.133l2.333-2.333-0.733-0.733-3.6 3.6 3.6 3.6 0.733-0.733-2.333-2.333h9.133c3.267 0 5.867-2.667 5.867-5.933h-1.067c0 2.667-2.133 4.867-4.8 4.867z"></path>
<path d="M18.067 8.067l2.333 2.333h-9.133c-3.267 0-5.867 2.667-5.867 5.933h1.067c0-2.667 2.133-4.867 4.8-4.867h9.067l-2.267 2.333 0.733 0.733 3.533-3.6-3.533-3.6-0.733 0.733z"></path>
</svg>
