<!-- Generated by IcoMoon.io -->
<svg version="1.1" xmlns="http://www.w3.org/2000/svg" width="32" height="32" viewBox="0 0 32 32">
<title>Icon-Pip</title>
<path d="M14.067 13.667h9.333c0.267 0 0.533 0.2 0.533 0.533v7.067c0 0.267-0.2 0.533-0.533 0.533h-9.333c-0.267 0-0.533-0.2-0.533-0.533v-7.067c0-0.333 0.2-0.533 0.533-0.533z"></path>
<path d="M25.133 7.533h-18.267c-0.867 0-1.533 0.667-1.533 1.533v13.867c0 0.867 0.667 1.533 1.533 1.533h18.2c0.867 0 1.533-0.667 1.533-1.533v-13.867c0.067-0.867-0.6-1.533-1.467-1.533zM25.333 23h-18.667v-14h18.667v14z"></path>
</svg>
