<!-- Generated by IcoMoon.io -->
<svg version="1.1" xmlns="http://www.w3.org/2000/svg" width="32" height="32" viewBox="0 0 32 32">
<title>Icon-Music</title>
<path d="M8.887 21.38c0.973 0.004 1.76 0.793 1.76 1.767 0 0.976-0.791 1.767-1.767 1.767s-1.767-0.791-1.767-1.767c0-0.002 0-0.005 0-0.007v0c0-0 0-0 0-0 0-0.972 0.788-1.76 1.76-1.76 0.005 0 0.009 0 0.014 0h-0.001zM23.113 18.713c0.963 0.011 1.74 0.795 1.74 1.76 0 0.972-0.788 1.76-1.76 1.76-0.963 0-1.745-0.773-1.76-1.732l-0-0.001c0-0.002 0-0.004 0-0.007 0-0.968 0.785-1.753 1.753-1.753 0.009 0 0.019 0 0.028 0l-0.001-0zM24.887 7.427v1.76l-12.44 2.34v-1.76zM26.667 5.333l-1.053 0.22-14.227 2.667-0.72 0.087v11.807c-0.509-0.307-1.123-0.49-1.779-0.493h-0.001c-1.933 0.019-3.493 1.59-3.493 3.526 0 1.948 1.579 3.527 3.527 3.527s3.527-1.579 3.527-3.527c0-0.002 0-0.005 0-0.007v0-9.853l12.44-2.313v6.5c-0.507-0.307-1.118-0.489-1.772-0.493h-0.001c-1.936 0.015-3.5 1.588-3.5 3.527 0 1.948 1.579 3.527 3.527 3.527s3.527-1.579 3.527-3.527c0-0.002 0-0.005 0-0.007v0-15.167z"></path>
</svg>
