<!-- Generated by IcoMoon.io -->
<svg version="1.1" xmlns="http://www.w3.org/2000/svg" width="32" height="32" viewBox="0 0 32 32">
<title>Icon-DVD</title>
<path d="M7.547 12.167h-2.213v7.667h2.12c0.068 0.004 0.148 0.006 0.229 0.006 1.123 0 2.149-0.411 2.937-1.091l-0.006 0.005c0.725-0.674 1.176-1.633 1.176-2.697 0-0.053-0.001-0.105-0.003-0.157l0 0.007q0-3.74-4.24-3.74zM9.707 18c-0.503 0.462-1.177 0.745-1.918 0.745-0.060 0-0.119-0.002-0.177-0.005l0.008 0h-1.020v-5.493h1.067c1.853 0 2.787 0.893 2.787 2.667 0.003 0.051 0.005 0.11 0.005 0.17 0 0.741-0.286 1.415-0.753 1.919l0.002-0.002z"></path>
<path d="M15.913 18c-0.063 0.189-0.117 0.414-0.151 0.645l-0.003 0.022c-0.028-0.249-0.077-0.475-0.147-0.692l0.007 0.025-1.893-5.82h-1.413l2.707 7.667h1.427l2.753-7.667h-1.333z"></path>
<path d="M22.427 12.167h-2.213v7.667h2.12c0.068 0.004 0.148 0.006 0.229 0.006 1.122 0 2.149-0.411 2.937-1.091l-0.006 0.005c0.725-0.674 1.176-1.633 1.176-2.697 0-0.053-0.001-0.105-0.003-0.157l0 0.007q0-3.74-4.24-3.74zM24.587 18c-0.504 0.462-1.179 0.745-1.92 0.745-0.061 0-0.121-0.002-0.181-0.006l0.008 0h-1.013v-5.493h1.067c1.853 0 2.787 0.893 2.787 2.667 0.003 0.051 0.005 0.11 0.005 0.17 0 0.741-0.286 1.415-0.753 1.919l0.002-0.002z"></path>
</svg>
