<!-- Generated by IcoMoon.io -->
<svg version="1.1" xmlns="http://www.w3.org/2000/svg" width="32" height="32" viewBox="0 0 32 32">
<title>Icon-Browse</title>
<path d="M17.913 16.667c-0.574-0.157-1.233-0.247-1.913-0.247-1.371 0-2.656 0.366-3.763 1.007l0.036-0.019c-0.613 0.341-1.141 0.737-1.608 1.195l0.001-0.001 0.887 0.887c0.387-0.39 0.825-0.729 1.304-1.004l0.030-0.016c0.435-0.252 0.938-0.462 1.47-0.603l0.044-0.010c0.478-0.131 1.027-0.207 1.593-0.207s1.115 0.075 1.637 0.217l-0.044-0.010c0.575 0.152 1.078 0.362 1.544 0.63l-0.030-0.016c0.509 0.291 0.947 0.63 1.333 1.020l0 0 0.9-0.887c-0.466-0.469-0.994-0.876-1.571-1.208l-0.036-0.019c-0.521-0.289-1.125-0.531-1.76-0.695l-0.054-0.012z"></path>
<path d="M17.333 19.933c-0.34-0.345-0.811-0.558-1.333-0.56h-0c-0.255 0.001-0.498 0.052-0.719 0.145l0.012-0.005c-0.245 0.101-0.453 0.243-0.626 0.42l-0 0c-0.177 0.171-0.319 0.378-0.416 0.608l-0.004 0.012c-0.084 0.211-0.133 0.455-0.133 0.71s0.049 0.499 0.138 0.723l-0.005-0.013c0.101 0.245 0.243 0.453 0.42 0.626l0 0c0.175 0.173 0.383 0.312 0.614 0.409l0.013 0.005c0.209 0.088 0.452 0.139 0.706 0.14h0c0 0 0 0 0 0 0.255 0 0.498-0.051 0.719-0.145l-0.012 0.005c0.244-0.101 0.452-0.241 0.627-0.414l-0 0c0.177-0.174 0.319-0.382 0.416-0.614l0.005-0.012c0.084-0.211 0.133-0.455 0.133-0.71s-0.049-0.499-0.138-0.723l0.005 0.013c-0.101-0.242-0.243-0.449-0.419-0.62l-0-0z"></path>
<path d="M18.867 12.98c-0.86-0.233-1.848-0.367-2.867-0.367s-2.006 0.134-2.946 0.385l0.080-0.018c-1.034 0.276-1.938 0.654-2.775 1.136l0.055-0.029c-0.921 0.526-1.714 1.139-2.412 1.846l-0.001 0.001 0.887 0.887c0.62-0.626 1.324-1.167 2.092-1.608l0.048-0.025c1.43-0.822 3.145-1.307 4.973-1.307s3.543 0.485 5.023 1.333l-0.049-0.026c0.816 0.466 1.52 1.008 2.139 1.633l0.001 0.001 0.887-0.887c-0.699-0.708-1.492-1.32-2.36-1.818l-0.054-0.028c-0.782-0.453-1.686-0.831-2.64-1.088l-0.080-0.018z"></path>
<path d="M23.453 10.813c-1.042-0.603-2.248-1.109-3.519-1.455l-0.108-0.025c-1.148-0.313-2.466-0.493-3.827-0.493s-2.679 0.18-3.932 0.518l0.106-0.024c-1.379 0.369-2.584 0.873-3.702 1.513l0.075-0.040c-1.226 0.701-2.283 1.517-3.212 2.458l-0.002 0.002 0.887 0.887c0.853-0.86 1.822-1.603 2.881-2.206l0.066-0.034c0.958-0.543 2.066-0.999 3.234-1.311l0.1-0.023c1.054-0.284 2.265-0.447 3.513-0.447s2.459 0.163 3.611 0.469l-0.098-0.022c1.267 0.334 2.375 0.79 3.405 1.37l-0.071-0.037c1.125 0.637 2.093 1.38 2.946 2.239l0.001 0.001 0.86-0.887c-0.931-0.941-1.987-1.755-3.142-2.416l-0.072-0.038z"></path>
</svg>
