<!-- Generated by IcoMoon.io -->
<svg version="1.1" xmlns="http://www.w3.org/2000/svg" width="32" height="32" viewBox="0 0 32 32">
<title>Icon-Discover</title>
<path d="M20.427 10.6l-5.86 2.667c-0.287 0.127-0.6 0.24-0.88 0.393s-0.333 0.393-0.447 0.667c-0.48 1.12-0.967 2.247-1.453 3.367-0.387 0.913-0.78 1.827-1.173 2.74-0.060 0.108-0.095 0.236-0.095 0.373s0.035 0.265 0.097 0.377l-0.002-0.004 0.040 0.047c0.098 0.138 0.25 0.232 0.424 0.253l0.003 0h0.087c0.019 0.002 0.041 0.003 0.064 0.003 0.128 0 0.249-0.033 0.353-0.091l-0.004 0.002 5.887-2.493c0.28-0.089 0.523-0.203 0.748-0.342l-0.014 0.008c0.211-0.223 0.372-0.496 0.463-0.799l0.004-0.014c0.52-1.167 1.040-2.327 1.553-3.493l1.193-2.7c0.064-0.104 0.102-0.23 0.102-0.365 0-0.39-0.316-0.707-0.707-0.707-0.142 0-0.274 0.042-0.384 0.114l0.003-0.002zM17.547 16.793l-0.3 0.667-4.72 2 1.747-4.067 0.273-0.667 4.867-2.18z"></path>
<path d="M26 12.247c-0.831-2.145-2.254-3.907-4.068-5.136l-0.038-0.024c-1.663-1.108-3.706-1.768-5.904-1.768-2.351 0-4.525 0.755-6.294 2.037l0.031-0.022c-0.473 0.35-0.891 0.704-1.283 1.083l0.003-0.003c-1.51 1.512-2.569 3.475-2.957 5.669l-0.009 0.064c-0.094 0.538-0.148 1.157-0.148 1.788 0 1.669 0.377 3.251 1.050 4.664l-0.028-0.066c1.728 3.698 5.417 6.214 9.693 6.214 5.891 0 10.667-4.776 10.667-10.667 0-1.379-0.262-2.697-0.738-3.906l0.025 0.072zM25.22 16.913v0.193s0 0.127 0 0.127l-0.040 0.26c-0.040 0.253-0.1 0.507-0.16 0.76s-0.127 0.46-0.2 0.667c-0.033 0.122-0.070 0.224-0.113 0.322l0.006-0.015-0.067 0.18v0.073c-0.017 0.029-0.031 0.062-0.040 0.098l-0 0.002c-0.222 0.489-0.444 0.898-0.692 1.29l0.025-0.043c-0.272 0.442-0.562 0.826-0.885 1.179l0.005-0.006c-0.343 0.404-0.71 0.767-1.105 1.095l-0.015 0.012-0.26 0.22h-0.047l-0.16 0.113c-0.207 0.153-0.42 0.293-0.667 0.427s-0.4 0.233-0.6 0.333l-0.353 0.173-0.18 0.080s-0.12 0.047-0.113 0.053c-0.368 0.153-0.824 0.303-1.291 0.424l-0.075 0.016c-0.227 0.060-0.46 0.107-0.667 0.147l-0.26 0.040h-0.38c-0.21 0.014-0.456 0.022-0.703 0.022s-0.493-0.008-0.736-0.024l0.033 0.002c-0.22 0-0.433-0.040-0.667-0.060h-0.127l-0.193-0.033-0.38-0.067c-0.552-0.074-1.041-0.182-1.515-0.324l0.068 0.018-0.267-0.1-0.113-0.047-0.173-0.080q-0.36-0.173-0.7-0.36c-0.234-0.129-0.428-0.25-0.615-0.381l0.022 0.014c-0.118-0.072-0.218-0.143-0.313-0.218l0.007 0.005-0.167-0.113h-0.040c-0.421-0.338-0.798-0.689-1.147-1.066l-0.006-0.007c-0.167-0.18-0.327-0.373-0.48-0.573l-0.040-0.040-0.1-0.133-0.247-0.36c-0.248-0.376-0.493-0.814-0.706-1.268l-0.027-0.065c-0.016-0.033-0.032-0.073-0.045-0.114l-0.002-0.006s-0.067-0.153-0.053-0.107l-0.12-0.367c-0.087-0.233-0.167-0.467-0.233-0.707s-0.12-0.46-0.173-0.667c0-0.127-0.047-0.253-0.067-0.38-0.002-0.019-0.003-0.041-0.003-0.063s0.001-0.044 0.003-0.066l-0 0.003c-0.003-0.025-0.004-0.054-0.004-0.083s0.001-0.058 0.004-0.087l-0 0.004c-0.048-0.372-0.075-0.803-0.075-1.24 0-0.068 0.001-0.136 0.002-0.203l-0 0.010c0-0.233 0-0.467 0.040-0.707 0-0.087 0-0.173 0-0.26s0-0.113 0-0.127c-0.002-0.033-0.003-0.071-0.003-0.11s0.001-0.077 0.003-0.115l-0 0.005c0.098-0.551 0.221-1.026 0.375-1.487l-0.021 0.074c0.067-0.207 0.147-0.42 0.227-0.627 0 0 0.047-0.1 0.053-0.107 0.026-0.071 0.053-0.131 0.084-0.188l-0.004 0.008c0.053-0.113 0.107-0.24 0.173-0.353 0.261-0.499 0.524-0.923 0.815-1.325l-0.021 0.031 0.080-0.107c0.008-0.018 0.020-0.034 0.033-0.047l0-0c0.080-0.107 0.167-0.207 0.253-0.313s0.34-0.373 0.513-0.547c0.022-0.020 0.041-0.042 0.059-0.065l0.001-0.001c0.16-0.16 0.327-0.32 0.5-0.467l0.307-0.26h0.033c0.067-0.040 0.127-0.093 0.193-0.14 0.373-0.273 0.796-0.535 1.24-0.762l0.053-0.025 0.3-0.147 0.173-0.080 0.113-0.047c0.227-0.093 0.453-0.173 0.667-0.253 0.379-0.127 0.841-0.243 1.315-0.325l0.058-0.008h0.193s0.227-0.033 0.073 0h0.313c0.26 0 0.507-0.033 0.767-0.040s0.473 0 0.707 0h0.687c0.524 0.074 0.986 0.176 1.435 0.311l-0.068-0.018c0.22 0.060 0.44 0.133 0.667 0.207l0.327 0.127 0.107 0.047 0.18 0.080c0.94 0.437 1.748 0.987 2.452 1.645l-0.005-0.005c0.399 0.332 0.759 0.676 1.092 1.044l0.008 0.009v0.047l0.113 0.16 0.193 0.28c0.147 0.22 0.287 0.44 0.42 0.667s0.227 0.427 0.327 0.667l0.080 0.18s0.047 0.113 0.047 0.12v-0.047c0.040 0.12 0.093 0.24 0.14 0.36 0.145 0.388 0.283 0.866 0.387 1.356l0.013 0.071c0 0.107 0.047 0.213 0.067 0.32v0.193s0 0.047 0 0.067v0c0 0.233 0.053 0.467 0.060 0.7 0.029 0.286 0.046 0.617 0.046 0.952 0 0.176-0.005 0.351-0.014 0.525l0.001-0.024z"></path>
</svg>
