<!-- Generated by IcoMoon.io -->
<svg version="1.1" xmlns="http://www.w3.org/2000/svg" width="32" height="32" viewBox="0 0 32 32">
<title>Icon-Usb</title>
<path d="M20.667 10.667c0.2 0 0.333 0.067 0.533 0.133 0.133 0.067 0.333 0.133 0.4 0.267 0.133 0.133 0.2 0.267 0.267 0.4 0.133 0.2 0.133 0.333 0.133 0.533v9.333c0 0.2-0.067 0.333-0.133 0.533-0.067 0.133-0.133 0.267-0.267 0.4s-0.267 0.2-0.4 0.267c-0.2 0.067-0.333 0.133-0.533 0.133h-4v4h-1.333v-4h-4c-0.2 0-0.333-0.067-0.533-0.133-0.133-0.067-0.333-0.133-0.4-0.267-0.133-0.133-0.2-0.267-0.267-0.4-0.133-0.2-0.133-0.333-0.133-0.533v-9.333c0-0.2 0.067-0.333 0.133-0.533 0.067-0.133 0.133-0.267 0.267-0.4s0.267-0.2 0.4-0.267c0.133-0.067 0.333-0.133 0.533-0.133v-5.333h9.333v5.333zM11.333 21.333h9.333v-9.333h-9.333v9.333zM12.667 10.667h6.667v-4h-6.667v4zM14 9.333h1.333v-1.333h-1.333v1.333zM16.667 9.333h1.333v-1.333h-1.333v1.333z"></path>
</svg>
