<!-- Generated by IcoMoon.io -->
<svg version="1.1" xmlns="http://www.w3.org/2000/svg" width="32" height="32" viewBox="0 0 32 32">
<title>Icon-Effects</title>
<path d="M21.867 22.473v0c-0.292-1.356-1.481-2.357-2.903-2.357s-2.611 1.001-2.9 2.337l-0.004 0.020h-10.727v1.173h10.727c0.292 1.356 1.481 2.357 2.903 2.357s2.611-1.001 2.9-2.337l0.004-0.020h4.8v-1.173zM18.967 24.827c-0.973-0.004-1.76-0.793-1.76-1.767 0-0.976 0.791-1.767 1.767-1.767s1.767 0.791 1.767 1.767v0c-0.004 0.977-0.796 1.767-1.773 1.767 0 0 0 0 0 0v0z"></path>
<path d="M24.233 8.353v0c-0.292-1.356-1.481-2.357-2.903-2.357s-2.611 1.001-2.9 2.337l-0.004 0.020h-13.093v1.173h13.093c0.292 1.356 1.481 2.357 2.903 2.357s2.611-1.001 2.9-2.337l0.004-0.020h2.433v-1.173zM21.333 10.707c-0.97-0.008-1.753-0.796-1.753-1.767 0-0.976 0.791-1.767 1.767-1.767s1.767 0.791 1.767 1.767v0c-0.008 0.977-0.802 1.767-1.78 1.767-0 0-0 0-0 0v0z"></path>
<path d="M14.753 15.413v0c-0.292-1.356-1.481-2.357-2.903-2.357s-2.611 1.001-2.9 2.337l-0.004 0.020h-3.613v1.173h3.613c0.292 1.356 1.481 2.357 2.903 2.357s2.611-1.001 2.9-2.337l0.004-0.020h11.913v-1.173zM11.853 17.767c-0.97-0.008-1.753-0.796-1.753-1.767 0-0.976 0.791-1.767 1.767-1.767s1.767 0.791 1.767 1.767v0c-0.008 0.977-0.802 1.767-1.78 1.767-0 0-0 0-0 0v0z"></path>
</svg>
