<!-- Generated by IcoMoon.io -->
<svg version="1.1" xmlns="http://www.w3.org/2000/svg" width="32" height="32" viewBox="0 0 32 32">
<title>Icon-Podcast</title>
<path d="M18.4 6.933h-4.8c-0 0-0 0-0.001 0-0.139 0-0.272 0.027-0.393 0.076l0.007-0.003c-0.241 0.109-0.431 0.299-0.537 0.533l-0.003 0.007c-0.046 0.114-0.073 0.247-0.073 0.386 0 0 0 0 0 0.001v-0 10.8c0 0 0 0 0 0.001 0 0.139 0.027 0.272 0.076 0.393l-0.003-0.007c0.109 0.241 0.299 0.431 0.533 0.537l0.007 0.003c0.114 0.046 0.247 0.073 0.386 0.073 0 0 0 0 0.001 0h4.8c0 0 0 0 0.001 0 0.139 0 0.272-0.027 0.393-0.076l-0.007 0.003c0.241-0.109 0.431-0.299 0.537-0.533l0.003-0.007c0.046-0.114 0.073-0.247 0.073-0.386 0-0 0-0 0-0.001v0-10.8c0-0 0-0 0-0.001 0-0.139-0.027-0.272-0.076-0.393l0.003 0.007c-0.109-0.241-0.299-0.431-0.533-0.537l-0.007-0.003c-0.114-0.046-0.247-0.073-0.386-0.073-0 0-0 0-0.001 0h0zM18.4 5.333c0.006-0 0.014-0 0.022-0 0.361 0 0.704 0.076 1.014 0.213l-0.016-0.006c0.621 0.268 1.105 0.753 1.367 1.357l0.006 0.017c0.131 0.294 0.207 0.637 0.207 0.998 0 0.008-0 0.015-0 0.023v-0.001 10.8c0 0.006 0 0.014 0 0.022 0 0.361-0.076 0.704-0.213 1.014l0.006-0.016c-0.268 0.621-0.753 1.105-1.357 1.367l-0.017 0.006c-0.294 0.131-0.637 0.207-0.998 0.207-0.008 0-0.015-0-0.023-0h-4.799c-0.006 0-0.014 0-0.022 0-0.361 0-0.704-0.076-1.014-0.213l0.016 0.006c-0.621-0.268-1.105-0.753-1.367-1.357l-0.006-0.017c-0.131-0.294-0.207-0.637-0.207-0.998 0-0.008 0-0.015 0-0.023v0.001-10.8c-0-0.006-0-0.014-0-0.022 0-0.361 0.076-0.704 0.213-1.014l-0.006 0.016c0.268-0.621 0.753-1.105 1.357-1.367l0.017-0.006c0.294-0.131 0.637-0.207 0.998-0.207 0.008 0 0.015 0 0.023 0h-0.001zM10 16v3.773c-0 0.006-0 0.013-0 0.020 0 0.398 0.083 0.776 0.234 1.117l-0.007-0.018c0.297 0.702 0.845 1.25 1.528 1.54l0.019 0.007c0.324 0.143 0.702 0.227 1.1 0.227 0.007 0 0.014-0 0.021-0h6.212c0.006 0 0.013 0 0.020 0 0.398 0 0.776-0.083 1.117-0.234l-0.018 0.007c0.702-0.297 1.25-0.845 1.54-1.528l0.007-0.019c0.143-0.324 0.227-0.702 0.227-1.1 0-0.007-0-0.014-0-0.021v0.001-3.773h1.333v3.773c0 0.003 0 0.007 0 0.011 0 0.591-0.123 1.153-0.344 1.663l0.010-0.027c-0.441 1.013-1.233 1.805-2.219 2.236l-0.028 0.011c-0.483 0.211-1.045 0.333-1.636 0.333-0.004 0-0.008 0-0.012 0h-2.439v1.333h2.667v1.333h-6.667v-1.333h2.667v-1.333h-2.44c-0.003 0-0.007 0-0.011 0-0.591 0-1.153-0.123-1.663-0.344l0.027 0.010c-1.013-0.441-1.805-1.233-2.236-2.219l-0.011-0.028c-0.211-0.483-0.333-1.045-0.333-1.636 0-0.004 0-0.008 0-0.012v0.001-3.773z"></path>
</svg>
