<!-- Generated by IcoMoon.io -->
<svg version="1.1" xmlns="http://www.w3.org/2000/svg" width="32" height="32" viewBox="0 0 32 32">
<title>Icon-Random</title>
<path d="M9.467 12.733c0.667 0.267 1.267 0.6 1.867 1s1.133 0.867 1.667 1.333c0.133-0.133 0.333-0.333 0.467-0.533s0.267-0.333 0.467-0.533c-1.133-1.067-2.467-1.933-3.933-2.533s-3-0.933-4.6-0.933v1.4c1.333-0.067 2.733 0.267 4.067 0.8z"></path>
<path d="M22.533 18.533l1.533 1.6c-1.333-0.067-2.733-0.333-3.933-0.867-0.6-0.267-1.2-0.6-1.8-1s-1.133-0.8-1.6-1.267c-0.133 0.2-0.333 0.333-0.467 0.533s-0.267 0.333-0.467 0.533c0.533 0.533 1.2 1 1.8 1.4s1.333 0.8 2 1.067c0.667 0.267 1.4 0.533 2.133 0.667s1.533 0.267 2.267 0.267l-1.533 1.6 0.933 1 3.2-3.2-3.2-3.2-0.867 0.867z"></path>
<path d="M17.2 14.6c0.6-0.533 1.333-1 2.067-1.4s1.467-0.733 2.267-0.933c0.8-0.2 1.667-0.333 2.533-0.4l-1.533 1.533 0.933 1 3.2-3.2-3.2-3.2-0.933 0.933 1.533 1.6c-1.533 0.067-3 0.333-4.4 0.933-0.667 0.267-1.333 0.667-2 1.067s-1.267 0.867-1.8 1.4c-0.267 0.267-0.533 0.533-0.8 0.8s-0.533 0.533-0.733 0.867c-0.6 0.667-1.2 1.267-1.867 1.867-0.667 0.533-1.333 1-2.133 1.4-0.733 0.4-1.533 0.733-2.333 0.933-0.867 0.2-1.8 0.333-2.667 0.333v1.4c1.6 0 3.133-0.267 4.6-0.933 1.467-0.6 2.8-1.467 3.933-2.533 0.267-0.267 0.533-0.533 0.733-0.733l0.667-0.8c0.667-0.733 1.267-1.333 1.933-1.933z"></path>
</svg>
