<!-- Generated by IcoMoon.io -->
<svg version="1.1" xmlns="http://www.w3.org/2000/svg" width="32" height="32" viewBox="0 0 32 32">
<title>Icon-Queue</title>
<path d="M5.333 11.733h21.333v2.133h-21.333v-2.133z"></path>
<path d="M5.333 5.333h21.333v2.133h-21.333v-2.133z"></path>
<path d="M5.333 18.133h8.753v2.133h-8.753v-2.133z"></path>
<path d="M19.793 18.047v5.913h-0.433c-0.22 0.004-0.431 0.036-0.631 0.091l0.018-0.004c-0.223 0.063-0.418 0.152-0.596 0.265l0.009-0.005c-0.173 0.114-0.317 0.256-0.43 0.421l-0.003 0.005c-0.108 0.171-0.173 0.38-0.173 0.603s0.064 0.432 0.175 0.608l-0.003-0.005c0.115 0.172 0.259 0.314 0.428 0.423l0.006 0.003c0.168 0.114 0.364 0.204 0.574 0.257l0.013 0.003c0.184 0.055 0.395 0.087 0.613 0.087s0.43-0.032 0.629-0.091l-0.016 0.004c0.223-0.056 0.419-0.146 0.593-0.264l-0.007 0.004c0.174-0.112 0.319-0.255 0.43-0.421l0.003-0.005c0.109-0.165 0.173-0.367 0.173-0.585 0-0.005-0-0.011-0-0.016v0.001-6.213l4.127-1.033v4.48c-0.052-0.004-0.112-0.007-0.173-0.007s-0.121 0.002-0.181 0.007l0.008-0c-0.213 0.002-0.416 0.036-0.608 0.097l0.015-0.004c-0.213 0.061-0.4 0.152-0.565 0.27l0.005-0.004c-0.165 0.115-0.301 0.259-0.403 0.427l-0.003 0.006c-0.1 0.167-0.159 0.368-0.159 0.583s0.059 0.416 0.162 0.589l-0.003-0.005c0.105 0.174 0.241 0.319 0.402 0.43l0.005 0.003c0.161 0.111 0.347 0.202 0.546 0.263l0.014 0.004c0.177 0.057 0.381 0.091 0.592 0.093h0.001c0.215-0.003 0.421-0.037 0.615-0.097l-0.015 0.004c0.211-0.065 0.394-0.156 0.56-0.271l-0.007 0.004c0.167-0.115 0.306-0.259 0.41-0.427l0.003-0.006c0.096-0.161 0.154-0.356 0.154-0.564 0-0.008-0-0.016-0-0.024l0 0.001v-7.613z"></path>
<path d="M5.333 24.533h8.753v2.133h-8.753v-2.133z"></path>
</svg>
