<!-- Generated by IcoMoon.io -->
<svg version="1.1" xmlns="http://www.w3.org/2000/svg" width="32" height="32" viewBox="0 0 32 32">
<title>local_movies_outline</title>
<path d="M18.667 6.667v18.667h-5.333v-18.667h5.333zM26.667 4h-2.667v2.667h-2.667v-2.667h-10.667v2.667h-2.667v-2.667h-2.667v24h2.667v-2.667h2.667v2.667h10.667v-2.667h2.667v2.667h2.667v-24zM21.333 12v-2.667h2.667v2.667h-2.667zM8 12v-2.667h2.667v2.667h-2.667zM21.333 17.333v-2.667h2.667v2.667h-2.667zM8 17.333v-2.667h2.667v2.667h-2.667zM21.333 22.667v-2.667h2.667v2.667h-2.667zM8 22.667v-2.667h2.667v2.667h-2.667z"></path>
</svg>
