<!-- Generated by IcoMoon.io -->
<svg version="1.1" xmlns="http://www.w3.org/2000/svg" width="32" height="32" viewBox="0 0 32 32">
<title>more-vertical</title>
<path d="M18.667 16c0-0.736-0.3-1.404-0.781-1.885s-1.149-0.781-1.885-0.781-1.404 0.3-1.885 0.781-0.781 1.149-0.781 1.885 0.3 1.404 0.781 1.885 1.149 0.781 1.885 0.781 1.404-0.3 1.885-0.781 0.781-1.149 0.781-1.885zM18.667 6.667c0-0.736-0.3-1.404-0.781-1.885s-1.149-0.781-1.885-0.781-1.404 0.3-1.885 0.781-0.781 1.149-0.781 1.885 0.3 1.404 0.781 1.885 1.149 0.781 1.885 0.781 1.404-0.3 1.885-0.781 0.781-1.149 0.781-1.885zM18.667 25.333c0-0.736-0.3-1.404-0.781-1.885s-1.149-0.781-1.885-0.781-1.404 0.3-1.885 0.781-0.781 1.149-0.781 1.885 0.3 1.404 0.781 1.885 1.149 0.781 1.885 0.781 1.404-0.3 1.885-0.781 0.781-1.149 0.781-1.885z"></path>
</svg>
