<!-- Generated by IcoMoon.io -->
<svg version="1.1" xmlns="http://www.w3.org/2000/svg" width="32" height="32" viewBox="0 0 32 32">
<title>placeholder-album</title>
<path fill="#7a7a7a" d="M25.047 22.030c-0.296 0.442-0.626 0.863-0.989 1.261 0.364-0.398 0.694-0.818 0.989-1.261z"></path>
<path fill="#7a7a7a" d="M25.591 21.121c-0.167 0.311-0.347 0.614-0.545 0.909 0.197-0.294 0.379-0.597 0.545-0.909z"></path>
<path fill="#7a7a7a" d="M26.041 20.166c-0.134 0.326-0.285 0.645-0.449 0.956 0.167-0.312 0.316-0.63 0.449-0.956z"></path>
<path fill="#7a7a7a" d="M26.739 17.612c-0.052 0.353-0.12 0.702-0.205 1.046 0.084-0.344 0.153-0.693 0.205-1.046z"></path>
<path fill="#7a7a7a" d="M26.534 18.658c-0.084 0.344-0.186 0.681-0.305 1.015 0.118-0.332 0.22-0.67 0.305-1.015z"></path>
<path fill="#7a7a7a" d="M22.965 22.956c-1.883 1.859-4.357 2.882-6.965 2.882s-5.083-1.024-6.956-2.872c-1.859-1.885-2.881-4.357-2.881-6.965s1.023-5.083 2.872-6.956c1.883-1.859 4.357-2.881 6.965-2.881s5.083 1.023 6.956 2.871c1.859 1.885 2.882 4.357 2.882 6.967 0 2.658-1.020 5.128-2.872 6.956zM23.68 8.319c-2.063-2.035-4.776-3.175-7.68-3.175s-5.618 1.14-7.68 3.175c-2.035 2.063-3.175 4.778-3.175 7.681s1.14 5.617 3.175 7.68c2.063 2.035 4.776 3.175 7.68 3.175s5.618-1.14 7.68-3.175c0.129-0.128 0.254-0.257 0.376-0.389 0.364-0.398 0.695-0.82 0.989-1.262 0.197-0.293 0.379-0.597 0.546-0.909 0.166-0.311 0.315-0.63 0.449-0.955 0.067-0.164 0.129-0.327 0.189-0.494 0.118-0.332 0.219-0.67 0.305-1.015 0.084-0.343 0.153-0.692 0.205-1.045 0.077-0.529 0.116-1.069 0.116-1.612 0-2.904-1.14-5.618-3.175-7.681z"></path>
<path fill="#fa6400" d="M18.11 20.335l1.457 3.063c1.972-0.938 3.459-2.607 4.186-4.701l-3.203-1.114c-0.428 1.23-1.295 2.207-2.44 2.752z"></path>
<path fill="#fa6400" d="M8.246 13.302l3.204 1.114c0.42-1.207 1.294-2.188 2.46-2.762l-1.498-3.044c-1.972 0.97-3.452 2.637-4.166 4.691z"></path>
<path fill="#7a7a7a" d="M16 13.916c-1.156 0-2.084 0.928-2.084 2.084s0.928 2.084 2.084 2.084 2.084-0.928 2.084-2.085c0-1.156-0.928-2.084-2.084-2.084z"></path>
</svg>
