<!-- Generated by IcoMoon.io -->
<svg version="1.1" xmlns="http://www.w3.org/2000/svg" width="32" height="32" viewBox="0 0 32 32">
<title>placeholder-artist</title>
<path fill="#7a7a7a" d="M9.021 13.109c0.421 0.969 0.995 1.815 1.719 2.539s1.569 1.297 2.539 1.719c0.969 0.423 2.005 0.633 3.109 0.633s2.14-0.211 3.109-0.633c0.969-0.421 1.815-0.995 2.539-1.719s1.297-1.569 1.719-2.539c0.423-0.969 0.633-2.005 0.633-3.109s-0.211-2.14-0.633-3.109c-0.421-0.969-0.995-1.815-1.719-2.539s-1.569-1.297-2.539-1.719c-0.969-0.423-2.005-0.633-3.109-0.633s-2.14 0.211-3.109 0.633c-0.969 0.421-1.815 0.995-2.539 1.719s-1.297 1.569-1.719 2.539c-0.423 0.969-0.633 2.005-0.633 3.109s0.211 2.14 0.633 3.109zM24.736 20.421l-3.2 0.65c-0.119-0.045-0.25-0.097-0.392-0.157-1.463-0.609-3.049-0.915-4.757-0.915-1.115 0-2.188 0.14-3.219 0.421s-1.992 0.68-2.883 1.196c-0.891 0.516-1.699 1.135-2.423 1.859s-1.343 1.532-1.859 2.423c-0.516 0.891-0.915 1.852-1.196 2.883s-0.421 2.104-0.421 3.219h-2c0-1.5 0.219-2.935 0.656-4.305 0.437-1.369 1.057-2.627 1.86-3.773 0.801-1.145 1.773-2.156 2.913-3.031 1.141-0.875 2.415-1.568 3.821-2.079-0.813-0.437-1.543-0.968-2.188-1.593-0.647-0.625-1.196-1.32-1.648-2.085-0.453-0.767-0.803-1.584-1.048-2.453-0.244-0.871-0.367-1.764-0.367-2.68 0-1.385 0.26-2.685 0.781-3.899s1.235-2.273 2.14-3.18c0.907-0.905 1.967-1.619 3.18-2.14s2.513-0.781 3.899-0.781c1.385 0 2.685 0.26 3.899 0.781s2.273 1.235 3.18 2.14c0.905 0.907 1.619 1.967 2.14 3.18s0.781 2.513 0.781 3.899c0 0.916-0.123 1.807-0.367 2.672-0.245 0.864-0.595 1.677-1.048 2.437-0.452 0.76-1 1.456-1.64 2.085-0.64 0.631-1.361 1.165-2.164 1.603 0.944 0.326 2.133 0.868 3.568 1.624z"></path>
<path fill="#ff610a" d="M29.613 20.317l-0.483 0.101-6.502 1.208-0.33 0.050v5.398c-0.241-0.14-0.515-0.227-0.813-0.227-0.893 0-1.625 0.726-1.625 1.611s0.733 1.611 1.625 1.611c0.893 0 1.625-0.726 1.625-1.611v-4.505l5.689-1.057v2.97c-0.241-0.14-0.515-0.227-0.813-0.227-0.893 0-1.625 0.726-1.625 1.611s0.733 1.611 1.625 1.611c0.893 0 1.625-0.726 1.625-1.611v-6.934zM28.698 21.231v0.791l-5.79 1.038v-0.791l5.79-1.038zM27.936 26.412c0.425 0 0.762 0.337 0.762 0.762s-0.337 0.762-0.762 0.762c-0.425 0-0.762-0.337-0.762-0.762s0.337-0.762 0.762-0.762zM21.536 27.631c0.425 0 0.762 0.337 0.762 0.762s-0.337 0.762-0.762 0.762c-0.425 0-0.762-0.337-0.762-0.762s0.337-0.762 0.762-0.762z"></path>
</svg>
