<!-- Generated by IcoMoon.io -->
<svg version="1.1" xmlns="http://www.w3.org/2000/svg" width="32" height="32" viewBox="0 0 32 32">
<title>volume_off_outline</title>
<path d="M5.787 3.907l-1.88 1.88 5.813 5.813-0.387 0.4h-5.333v8h5.333l6.667 6.667v-8.787l5.573 5.573c-0.867 0.653-1.84 1.173-2.907 1.48v2.747c1.787-0.4 3.427-1.227 4.813-2.333l2.733 2.733 1.88-1.88-22.307-22.293zM13.333 20.227l-2.893-2.893h-3.773v-2.667h3.773l1.173-1.173 1.72 1.72v5.013zM25.333 16c0 1.093-0.2 2.147-0.547 3.12l2.040 2.040c0.747-1.56 1.173-3.307 1.173-5.16 0-5.707-3.987-10.48-9.333-11.693v2.747c3.853 1.147 6.667 4.72 6.667 8.947zM16 5.333l-2.507 2.507 2.507 2.507zM22 16c0-2.36-1.36-4.387-3.333-5.373v2.387l3.307 3.307c0.013-0.107 0.027-0.213 0.027-0.32z"></path>
</svg>
